<?xml version="1.0" encoding="utf-8"?><svg xmlns="http://www.w3.org/2000/svg" xmlns:xlink="http://www.w3.org/1999/xlink"><symbol viewBox="0 0 80 80" fill="none" id="lg-1" xmlns="http://www.w3.org/2000/svg">
<g clip-path="url(#aaclip0_2373_51231)">
<path d="M70.0016 78.3996H10.0016C9.50406 78.3996 9.10156 77.9971 9.10156 77.4996V2.49961C9.10156 2.00211 9.50406 1.59961 10.0016 1.59961H55.0016C55.2416 1.59961 55.4716 1.69461 55.6391 1.86211L70.6391 16.8621C70.8066 17.0321 70.9016 17.2596 70.9016 17.4996V77.4996C70.9016 77.9971 70.4991 78.3996 70.0016 78.3996ZM10.9016 76.5996H69.1016V18.3996H55.0016C54.5041 18.3996 54.1016 17.9971 54.1016 17.4996V3.39961H10.9016V76.5996ZM55.9016 16.5996H67.8291L55.9016 4.67211V16.5996ZM22.5016 70.8996C20.6266 70.8996 19.1016 69.3746 19.1016 67.4996C19.1016 65.6246 20.6266 64.0996 22.5016 64.0996C24.0641 64.0996 25.3841 65.1621 25.7816 66.5996H60.0016V68.4021H25.7816C25.3841 69.8396 24.0641 70.8996 22.5016 70.8996ZM22.5016 65.8996C21.6191 65.8996 20.9016 66.6171 20.9016 67.4996C20.9016 68.3821 21.6191 69.0996 22.5016 69.0996C23.3841 69.0996 24.1016 68.3821 24.1016 67.4996C24.1016 66.6171 23.3841 65.8996 22.5016 65.8996ZM22.5016 60.8996C20.6266 60.8996 19.1016 59.3746 19.1016 57.4996C19.1016 55.6246 20.6266 54.0996 22.5016 54.0996C24.0641 54.0996 25.3841 55.1621 25.7816 56.5996H60.0016V58.4021H25.7816C25.3841 59.8396 24.0641 60.8996 22.5016 60.8996ZM22.5016 55.8996C21.6191 55.8996 20.9016 56.6171 20.9016 57.4996C20.9016 58.3821 21.6191 59.0996 22.5016 59.0996C23.3841 59.0996 24.1016 58.3821 24.1016 57.4996C24.1016 56.6171 23.3841 55.8996 22.5016 55.8996ZM25.0016 50.8996H20.0016C19.5041 50.8996 19.1016 50.4971 19.1016 49.9996V44.9996C19.1016 44.5021 19.5041 44.0996 20.0016 44.0996H25.0016C25.4991 44.0996 25.9016 44.5021 25.9016 44.9996V46.5996H60.0016V48.4021H25.9016V49.9996C25.9016 50.4971 25.4991 50.8996 25.0016 50.8996ZM20.9016 49.0996H24.1016V45.8996H20.9016V49.0996ZM22.5016 40.8996C20.6266 40.8996 19.1016 39.3746 19.1016 37.4996C19.1016 35.6246 20.6266 34.0996 22.5016 34.0996C24.0641 34.0996 25.3841 35.1596 25.7816 36.5996H60.0016V38.3996H25.7816C25.3841 39.8396 24.0641 40.8996 22.5016 40.8996ZM22.5016 35.8996C21.6191 35.8996 20.9016 36.6171 20.9016 37.4996C20.9016 38.3821 21.6191 39.0996 22.5016 39.0996C23.3841 39.0996 24.1016 38.3821 24.1016 37.4996C24.1016 36.6171 23.3841 35.8996 22.5016 35.8996ZM25.0016 30.8996H20.0016C19.5041 30.8996 19.1016 30.4971 19.1016 29.9996V24.9996C19.1016 24.5021 19.5041 24.0996 20.0016 24.0996H25.0016C25.4991 24.0996 25.9016 24.5021 25.9016 24.9996V26.5996H60.0016V28.3996H25.9016V29.9996C25.9016 30.4971 25.4991 30.8996 25.0016 30.8996ZM20.9016 29.0996H24.1016V25.8996H20.9016V29.0996Z" fill="url(#aapaint0_linear_2373_51231)" stroke="url(#aapaint1_linear_2373_51231)" stroke-width="0.5"/>
</g>
<defs>
<linearGradient id="aapaint0_linear_2373_51231" x1="9.10156" y1="39.9996" x2="70.9016" y2="39.9996" gradientUnits="userSpaceOnUse">
<stop stop-color="#0156D5"/>
<stop offset="1" stop-color="#41BAFF"/>
</linearGradient>
<linearGradient id="aapaint1_linear_2373_51231" x1="9.10156" y1="39.9996" x2="70.9016" y2="39.9996" gradientUnits="userSpaceOnUse">
<stop stop-color="#0156D5"/>
<stop offset="1" stop-color="#41BAFF"/>
</linearGradient>
<clipPath id="aaclip0_2373_51231">
<rect width="80" height="80" fill="white"/>
</clipPath>
</defs>
</symbol><symbol viewBox="0 0 80 80" fill="none" id="lg-2" xmlns="http://www.w3.org/2000/svg">
<g clip-path="url(#abclip0_2373_51261)">
<path d="M75.0016 48.3996C76.8766 48.3996 78.4016 46.8746 78.4016 44.9996V34.9996C78.4016 33.1246 76.8766 31.5996 75.0016 31.5996H70.9016V14.9996C70.9016 11.7471 68.2541 9.09961 65.0016 9.09961H48.4016V4.99961C48.4016 3.12461 46.8766 1.59961 45.0016 1.59961H35.0016C33.1266 1.59961 31.6016 3.12461 31.6016 4.99961V9.09961H15.0016C11.7491 9.09961 9.10156 11.7471 9.10156 14.9996V31.6921C4.89656 32.1471 1.60156 35.6771 1.60156 39.9996C1.60156 44.3221 4.89656 47.8521 9.10156 48.3096V64.9996C9.10156 68.2546 11.7491 70.8996 15.0016 70.8996H31.6016V77.4996C31.6016 77.9971 32.0041 78.3996 32.5016 78.3996H77.5016C77.9991 78.3996 78.4016 77.9971 78.4016 77.4996V62.4996C78.4016 62.0021 77.9991 61.5996 77.5016 61.5996H70.9016V48.3996H75.0016ZM76.6016 34.9996V44.9996C76.6016 45.8821 75.8841 46.5996 75.0016 46.5996H65.0016C64.1191 46.5996 63.4016 45.8821 63.4016 44.9996V34.9996C63.4016 34.1171 64.1191 33.3996 65.0016 33.3996H75.0016C75.8841 33.3996 76.6016 34.1171 76.6016 34.9996ZM33.4016 4.99961C33.4016 4.11711 34.1191 3.39961 35.0016 3.39961H45.0016C45.8841 3.39961 46.6016 4.11711 46.6016 4.99961V14.9996C46.6016 15.8821 45.8841 16.5996 45.0016 16.5996H35.0016C34.1191 16.5996 33.4016 15.8821 33.4016 14.9996V4.99961ZM15.0016 10.8996H31.6016V14.9996C31.6016 16.8746 33.1266 18.3996 35.0016 18.3996H45.0016C46.8766 18.3996 48.4016 16.8746 48.4016 14.9996V10.8996H65.0016C67.2616 10.8996 69.1016 12.7396 69.1016 14.9996V31.5996H65.0016C63.1266 31.5996 61.6016 33.1246 61.6016 34.9996V39.0996H18.3091C17.8866 35.1946 14.8041 32.1146 10.8991 31.6896V14.9996C10.9016 12.7396 12.7416 10.8996 15.0016 10.8996ZM3.40156 39.9996C3.40156 36.3596 6.36406 33.3996 10.0016 33.3996C13.6391 33.3996 16.6016 36.3596 16.6016 39.9996C16.6016 43.6396 13.6391 46.5996 10.0016 46.5996C6.36406 46.5996 3.40156 43.6396 3.40156 39.9996ZM76.6016 76.5996H33.4016V63.3996H76.6016V76.5996ZM69.1016 61.5996H32.5016C32.0041 61.5996 31.6016 62.0021 31.6016 62.4996V69.0996H15.0016C12.7416 69.0996 10.9016 67.2621 10.9016 64.9996V48.3096C14.8066 47.8871 17.8866 44.8046 18.3116 40.8996H61.6016V44.9996C61.6016 46.8746 63.1266 48.3996 65.0016 48.3996H69.1016V61.5996ZM72.5016 68.3996H47.5016V66.5996H72.5016V68.3996ZM41.2516 67.4996C41.2516 68.1896 40.6916 68.7496 40.0016 68.7496C39.3116 68.7496 38.7516 68.1896 38.7516 67.4996C38.7516 66.8096 39.3116 66.2496 40.0016 66.2496C40.6916 66.2496 41.2516 66.8096 41.2516 67.4996ZM41.2516 9.99961C41.2516 10.6896 40.6916 11.2496 40.0016 11.2496C39.3116 11.2496 38.7516 10.6896 38.7516 9.99961C38.7516 9.30961 39.3116 8.74961 40.0016 8.74961C40.6916 8.74961 41.2516 9.30961 41.2516 9.99961ZM71.2516 39.9996C71.2516 40.6896 70.6916 41.2496 70.0016 41.2496C69.3116 41.2496 68.7516 40.6896 68.7516 39.9996C68.7516 39.3096 69.3116 38.7496 70.0016 38.7496C70.6916 38.7496 71.2516 39.3096 71.2516 39.9996Z" fill="url(#abpaint0_linear_2373_51261)" stroke="url(#abpaint1_linear_2373_51261)" stroke-width="0.5"/>
</g>
<defs>
<linearGradient id="abpaint0_linear_2373_51261" x1="1.60156" y1="39.9996" x2="78.4016" y2="39.9996" gradientUnits="userSpaceOnUse">
<stop stop-color="#0156D5"/>
<stop offset="1" stop-color="#41BAFF"/>
</linearGradient>
<linearGradient id="abpaint1_linear_2373_51261" x1="1.60156" y1="39.9996" x2="78.4016" y2="39.9996" gradientUnits="userSpaceOnUse">
<stop stop-color="#0156D5"/>
<stop offset="1" stop-color="#41BAFF"/>
</linearGradient>
<clipPath id="abclip0_2373_51261">
<rect width="80" height="80" fill="white"/>
</clipPath>
</defs>
</symbol><symbol viewBox="0 0 80 80" fill="none" id="lg-3" xmlns="http://www.w3.org/2000/svg">
<g clip-path="url(#acclip0_2373_15919)">
<path d="M33.1372 75.6371L31.8647 74.3621L34.3647 71.8621C34.5072 71.7196 34.6897 71.6296 34.8897 71.6046L53.1897 69.3171C54.0897 69.2046 54.9372 68.7921 55.5747 68.1521L70.8297 52.8946C71.8572 51.8696 71.8572 50.1971 70.8297 49.1671C69.8022 48.1396 68.1272 48.1421 67.1047 49.1696L51.5872 61.7846C50.5222 62.7946 49.0847 63.4146 47.5022 63.4146H35.0022V61.6121H47.5022C48.4947 61.6121 49.4097 61.2596 50.1222 60.6771L50.1122 60.6621L50.4022 60.4246C51.1572 59.6821 51.6222 58.6521 51.6222 57.5171C51.6222 56.6321 50.8947 55.9121 50.0022 55.9121L30.6497 55.8946C24.0947 55.8946 18.7147 61.0021 18.4022 67.5221C18.3922 67.7446 18.2972 67.9571 18.1422 68.1121L10.6422 75.6271L9.36719 74.3571L16.6272 67.0821C17.1597 59.7696 23.2547 54.0921 30.6522 54.0921L50.0022 54.1146C51.8897 54.1146 53.4247 55.6396 53.4247 57.5146C53.4247 57.6721 53.4172 57.8321 53.4047 57.9846L65.8997 47.8321C67.5572 46.1671 70.3747 46.1646 72.0997 47.8921C73.8297 49.6221 73.8272 52.4371 72.1022 54.1671L56.8472 69.4221C55.9272 70.3421 54.7072 70.9396 53.4097 71.1021L35.4172 73.3496L33.1372 75.6371ZM40.0022 48.3996C35.3697 48.3996 31.6022 44.6296 31.6022 39.9996C31.6022 35.3696 35.3697 31.5996 40.0022 31.5996C44.6347 31.5996 48.4022 35.3671 48.4022 39.9996C48.4022 44.6321 44.6347 48.3996 40.0022 48.3996ZM40.0022 33.3996C36.3622 33.3996 33.4022 36.3621 33.4022 39.9996C33.4022 43.6396 36.3647 46.5996 40.0022 46.5996C43.6422 46.5996 46.6022 43.6396 46.6022 39.9996C46.6022 36.3596 43.6422 33.3996 40.0022 33.3996ZM70.0022 25.8996H50.0022C49.6697 25.8996 49.3647 25.7171 49.2097 25.4246C49.0547 25.1321 49.0697 24.7771 49.2522 24.4996L59.2522 9.49961C59.5897 8.99961 60.4147 8.99961 60.7522 9.49961L70.7522 24.4996C70.9347 24.7746 70.9522 25.1296 70.7972 25.4246C70.6422 25.7196 70.3347 25.8996 70.0022 25.8996ZM51.6847 24.0996H68.3197L60.0022 11.6221L51.6847 24.0996ZM30.0022 23.3996H15.0022C14.5047 23.3996 14.1022 22.9971 14.1022 22.4996V7.49961C14.1022 7.00211 14.5047 6.59961 15.0022 6.59961H30.0022C30.4997 6.59961 30.9022 7.00211 30.9022 7.49961V22.4996C30.9022 22.9971 30.4997 23.3996 30.0022 23.3996ZM15.9022 21.5996H29.1022V8.39961H15.9022V21.5996Z" fill="url(#acpaint0_linear_2373_15919)" stroke="url(#acpaint1_linear_2373_15919)" stroke-width="0.5"/>
</g>
<defs>
<linearGradient id="acpaint0_linear_2373_15919" x1="9.36719" y1="41.1184" x2="73.3966" y2="41.1184" gradientUnits="userSpaceOnUse">
<stop stop-color="#0156D5"/>
<stop offset="1" stop-color="#41BAFF"/>
</linearGradient>
<linearGradient id="acpaint1_linear_2373_15919" x1="9.36719" y1="41.1184" x2="73.3966" y2="41.1184" gradientUnits="userSpaceOnUse">
<stop stop-color="#0156D5"/>
<stop offset="1" stop-color="#41BAFF"/>
</linearGradient>
<clipPath id="acclip0_2373_15919">
<rect width="80" height="80" fill="white"/>
</clipPath>
</defs>
</symbol><symbol viewBox="0 0 80 80" fill="none" id="lg-4" xmlns="http://www.w3.org/2000/svg">
<g clip-path="url(#adclip0_2373_51289)">
<path d="M75.9016 75.8996H55.0016V74.0996H72.8291L41.6841 42.9546C40.6916 43.5221 39.3141 43.5221 38.3191 42.9546L7.17406 74.0996H25.0016V75.9021H4.10156V54.9996H5.90156V72.8271L37.0466 41.6821C36.7641 41.1846 36.6016 40.6121 36.6016 39.9996C36.6016 39.3871 36.7641 38.8146 37.0466 38.3171L5.90156 7.17211V24.9996H4.10156V4.09961H25.0016V5.89961H7.17406L38.3191 37.0446C39.3116 36.4771 40.6891 36.4771 41.6841 37.0446L72.8291 5.89961H55.0016V4.09961H75.9016V24.9996H74.1016V7.17211L42.9566 38.3171C43.2391 38.8146 43.4041 39.3871 43.4041 39.9996C43.4041 40.6121 43.2416 41.1846 42.9566 41.6821L74.1016 72.8271V54.9996H75.9041L75.9016 75.8996ZM40.0016 38.3996C39.1191 38.3996 38.4016 39.1171 38.4016 39.9996C38.4016 40.8821 39.1191 41.5996 40.0016 41.5996C40.8841 41.5996 41.6016 40.8821 41.6016 39.9996C41.6016 39.1171 40.8841 38.3996 40.0016 38.3996Z" fill="url(#adpaint0_linear_2373_51289)" stroke="url(#adpaint1_linear_2373_51289)" stroke-width="0.5"/>
</g>
<defs>
<linearGradient id="adpaint0_linear_2373_51289" x1="4.10156" y1="40.0009" x2="75.9041" y2="40.0009" gradientUnits="userSpaceOnUse">
<stop stop-color="#0156D5"/>
<stop offset="1" stop-color="#41BAFF"/>
</linearGradient>
<linearGradient id="adpaint1_linear_2373_51289" x1="4.10156" y1="40.0009" x2="75.9041" y2="40.0009" gradientUnits="userSpaceOnUse">
<stop stop-color="#0156D5"/>
<stop offset="1" stop-color="#41BAFF"/>
</linearGradient>
<clipPath id="adclip0_2373_51289">
<rect width="80" height="80" fill="white"/>
</clipPath>
</defs>
</symbol><symbol viewBox="0 0 80 80" fill="none" id="lg-5" xmlns="http://www.w3.org/2000/svg">
<g clip-path="url(#aeclip0_2373_51317)">
<path d="M74.3625 75.6371L55.7625 57.0346C51.0775 59.3196 45.755 60.8996 40 60.8996C19.7825 60.8996 4.9025 41.3696 4.28 40.5371L3.875 39.9996L4.28 39.4596C4.9025 38.6296 19.7825 19.0996 40 19.0996C60.2175 19.0996 75.0975 38.6296 75.72 39.4596L76.125 39.9996L75.72 40.5396C75.295 41.1071 68.2675 50.3346 57.4425 56.1721L75.635 74.3621L74.3625 75.6371ZM6.1475 39.9996C8.715 43.1646 22.52 59.0996 40 59.0996C45.18 59.0996 50.0375 57.6996 54.375 55.6496L50.5825 51.8546C47.77 54.3696 44.06 55.8996 40 55.8996C31.2325 55.8996 24.1 48.7646 24.1 39.9996C24.1 31.2346 31.2325 24.0996 40 24.0996C48.7675 24.0996 55.9 31.2321 55.9 39.9996C55.9 44.0596 54.37 47.7696 51.855 50.5821L56.0725 54.7996C65.4825 49.8421 72.1475 42.1021 73.8525 39.9996C71.2875 36.8371 57.48 20.8996 40 20.8996C22.52 20.8996 8.715 36.8371 6.1475 39.9996ZM40 25.8996C32.225 25.8996 25.9 32.2246 25.9 39.9996C25.9 47.7746 32.225 54.0996 40 54.0996C47.775 54.0996 54.1 47.7771 54.1 39.9996C54.1 32.2246 47.775 25.8996 40 25.8996ZM40.9 50.8996H40C33.99 50.8996 29.1 46.0096 29.1 39.9996C29.1 33.9896 33.99 29.0996 40 29.0996C46.01 29.0996 50.9 33.9896 50.9 39.9996V40.8996H43.2775C42.96 42.0521 42.05 42.9621 40.8975 43.2796L40.9 50.8996ZM40 30.8996C34.9825 30.8996 30.9 34.9821 30.9 39.9996C30.9 44.7146 34.5025 48.5996 39.1 49.0546V43.2771C37.66 42.8821 36.6 41.5621 36.6 39.9971C36.6 38.1221 38.125 36.5971 40 36.5971C41.5625 36.5971 42.8825 37.6571 43.28 39.0971H49.0575C48.6 34.5021 44.715 30.8996 40 30.8996ZM40 38.3996C39.1175 38.3996 38.4 39.1171 38.4 39.9996C38.4 40.8821 39.1175 41.5996 40 41.5996C40.8825 41.5996 41.6 40.8821 41.6 39.9996C41.6 39.1171 40.8825 38.3996 40 38.3996Z" fill="url(#aepaint0_linear_2373_51317)" stroke="url(#aepaint1_linear_2373_51317)" stroke-width="0.5"/>
</g>
<defs>
<linearGradient id="aepaint0_linear_2373_51317" x1="3.875" y1="47.3684" x2="76.125" y2="47.3684" gradientUnits="userSpaceOnUse">
<stop stop-color="#0156D5"/>
<stop offset="1" stop-color="#41BAFF"/>
</linearGradient>
<linearGradient id="aepaint1_linear_2373_51317" x1="3.875" y1="47.3684" x2="76.125" y2="47.3684" gradientUnits="userSpaceOnUse">
<stop stop-color="#0156D5"/>
<stop offset="1" stop-color="#41BAFF"/>
</linearGradient>
<clipPath id="aeclip0_2373_51317">
<rect width="80" height="80" fill="white"/>
</clipPath>
</defs>
</symbol><symbol viewBox="0 0 24 24" fill="none" id="sm-1" xmlns="http://www.w3.org/2000/svg">
<g clip-path="url(#afclip0_2395_51503)">
<path d="M19.5 14H4.5C3.67157 14 3 14.6716 3 15.5V19.5C3 20.3284 3.67157 21 4.5 21H19.5C20.3284 21 21 20.3284 21 19.5V15.5C21 14.6716 20.3284 14 19.5 14Z" stroke="currentColor" stroke-width="1.2" stroke-linecap="round" stroke-linejoin="round"/>
<path d="M11.0022 10.0003H4.50219L4.49219 9.99928C3.66219 9.98928 2.99219 9.31928 2.99219 8.49928V8.49828V4.49828V4.48828C2.99219 3.65828 3.66219 2.98828 4.49219 2.98828H10.9922" stroke="currentColor" stroke-width="1.2" stroke-linecap="round" stroke-linejoin="round"/>
<path d="M6.53125 6V7" stroke="currentColor" stroke-width="1.2" stroke-linecap="round" stroke-linejoin="round"/>
<path d="M9.52344 6V7" stroke="currentColor" stroke-width="1.2" stroke-linecap="round" stroke-linejoin="round"/>
<path d="M12.5234 17.5H17.9984" stroke="currentColor" stroke-width="1.2" stroke-linecap="round" stroke-linejoin="round"/>
<path d="M6.53125 17V18" stroke="currentColor" stroke-width="1.2" stroke-linecap="round" stroke-linejoin="round"/>
<path d="M9.52344 17V18" stroke="currentColor" stroke-width="1.2" stroke-linecap="round" stroke-linejoin="round"/>
<path d="M20.6834 3.31C22.4334 5.06 22.4334 7.91 20.6834 9.67C18.9234 11.42 16.0734 11.42 14.3134 9.67C12.5534 7.91 12.5534 5.06 14.3034 3.3V3.29H14.2934C16.0434 1.53 18.8934 1.53 20.6534 3.28" stroke="currentColor" stroke-width="1.2" stroke-linecap="round" stroke-linejoin="round"/>
<path d="M19.0309 5.53906L17.1109 7.44906L15.9609 6.29906" stroke="currentColor" stroke-width="1.2" stroke-linecap="round" stroke-linejoin="round"/>
</g>
<defs>
<clipPath id="afclip0_2395_51503">
<rect width="24" height="24" fill="white"/>
</clipPath>
</defs>
</symbol><symbol viewBox="0 0 24 24" fill="none" id="sm-10" xmlns="http://www.w3.org/2000/svg">
<g clip-path="url(#agclip0_2406_19981)">
<path d="M12 15.0195V18.4995" stroke="currentColor" stroke-width="1.2" stroke-linecap="round" stroke-linejoin="round"/>
<path d="M13.5 20H20" stroke="currentColor" stroke-width="1.2" stroke-linecap="round" stroke-linejoin="round"/>
<path d="M4 20H10.5" stroke="currentColor" stroke-width="1.2" stroke-linecap="round" stroke-linejoin="round"/>
<path d="M6.5 5.5V6.5" stroke="currentColor" stroke-width="1.2" stroke-linecap="round" stroke-linejoin="round"/>
<path d="M9.5 5.5V6.5" stroke="currentColor" stroke-width="1.2" stroke-linecap="round" stroke-linejoin="round"/>
<path d="M12.5 6H18" stroke="currentColor" stroke-width="1.2" stroke-linecap="round" stroke-linejoin="round"/>
<path d="M6.5 11.5V12.5" stroke="currentColor" stroke-width="1.2" stroke-linecap="round" stroke-linejoin="round"/>
<path d="M9.5 11.5V12.5" stroke="currentColor" stroke-width="1.2" stroke-linecap="round" stroke-linejoin="round"/>
<path d="M12.5 12H18" stroke="currentColor" stroke-width="1.2" stroke-linecap="round" stroke-linejoin="round"/>
<path d="M19.5 9H4.5C3.67157 9 3 9.67157 3 10.5V13.5C3 14.3284 3.67157 15 4.5 15H19.5C20.3284 15 21 14.3284 21 13.5V10.5C21 9.67157 20.3284 9 19.5 9Z" stroke="currentColor" stroke-width="1.2" stroke-linecap="round" stroke-linejoin="round"/>
<path d="M19.5 3H4.5C3.67157 3 3 3.67157 3 4.5V7.5C3 8.32843 3.67157 9 4.5 9H19.5C20.3284 9 21 8.32843 21 7.5V4.5C21 3.67157 20.3284 3 19.5 3Z" stroke="currentColor" stroke-width="1.2" stroke-linecap="round" stroke-linejoin="round"/>
<path d="M12 21.5C12.8284 21.5 13.5 20.8284 13.5 20C13.5 19.1716 12.8284 18.5 12 18.5C11.1716 18.5 10.5 19.1716 10.5 20C10.5 20.8284 11.1716 21.5 12 21.5Z" stroke="currentColor" stroke-width="1.2" stroke-linecap="round" stroke-linejoin="round"/>
</g>
<defs>
<clipPath id="agclip0_2406_19981">
<rect width="24" height="24" fill="white"/>
</clipPath>
</defs>
</symbol><symbol viewBox="0 0 24 24" fill="none" id="sm-11" xmlns="http://www.w3.org/2000/svg">
<g clip-path="url(#ahclip0_2406_52246)">
<path d="M19.8164 13.7905L19.8564 13.7705V13.7605C20.5164 13.5905 20.9864 12.9905 20.9864 12.3005V11.6405V11.6305C20.9864 10.9405 20.5164 10.3405 19.8464 10.1705L19.7964 10.1505L19.7864 10.1405C18.8964 9.91053 18.3564 9.01053 18.5764 8.12053C18.6064 7.96053 18.6764 7.81053 18.7564 7.67053L18.7764 7.63053V7.62053C19.1264 7.02053 19.0364 6.26053 18.5464 5.77053L18.0764 5.30053C17.5864 4.81053 16.8264 4.72053 16.2364 5.07053L16.1864 5.09053V5.08053C15.3964 5.55053 14.3764 5.29053 13.9064 4.51053C13.8164 4.36053 13.7564 4.21053 13.7164 4.05053L13.6914 4.00053C13.5214 3.33053 12.9214 2.86053 12.2314 2.86053H11.5714L11.5614 2.85953C10.8714 2.84953 10.2714 3.31953 10.1014 3.98953L10.0814 4.02953V4.01953C9.85141 4.89953 8.95141 5.43953 8.06141 5.21953C7.90141 5.17953 7.75141 5.10953 7.61141 5.02953L7.57141 4.99953L7.56141 4.98953C6.96141 4.62953 6.20141 4.71953 5.71141 5.20953L5.24141 5.66953H5.23141C4.74141 6.14953 4.65141 6.90953 5.00141 7.49953L5.02141 7.53953L5.01141 7.52953C5.48141 8.30953 5.22141 9.32953 4.44141 9.79953C4.30141 9.87953 4.14141 9.93953 3.99141 9.97953L3.94141 9.98953H3.93141C3.26141 10.1495 2.79141 10.7495 2.79141 11.4395V12.0895H2.78141C2.77141 12.7695 3.24141 13.3695 3.91141 13.5395L3.95141 13.5495C4.83141 13.7695 5.37141 14.6695 5.15141 15.5495C5.11141 15.6995 5.04141 15.8495 4.96141 15.9895L4.93141 16.0295V16.0195C4.57141 16.6095 4.66141 17.3595 5.15141 17.8495L5.61141 18.3095L5.60141 18.2995C6.08141 18.7795 6.84141 18.8695 7.43141 18.5195L7.47141 18.4895H7.46141C8.24141 18.0095 9.26141 18.2695 9.73141 19.0495C9.81141 19.1795 9.87141 19.3395 9.91141 19.4895L9.92141 19.5295L9.91141 19.5195C10.0714 20.1795 10.6714 20.6495 11.3614 20.6495H12.0114L12.0014 20.6405C12.6814 20.6405 13.2814 20.1705 13.4514 19.5005L13.4614 19.4505H13.4514C13.6714 18.5605 14.5714 18.0205 15.4514 18.2405C15.6014 18.2705 15.7614 18.3405 15.9014 18.4205L15.9414 18.4405C16.5314 18.7905 17.2814 18.7005 17.7714 18.2105L18.2314 17.7405H18.2214C18.7014 17.2505 18.7914 16.4905 18.4414 15.9005L18.4114 15.8505L18.4014 15.8405C17.9214 15.0505 18.1814 14.0305 18.9614 13.5605C19.0914 13.4705 19.2514 13.4105 19.4014 13.3705L19.8164 13.7905Z" stroke="currentColor" stroke-width="1.2" stroke-linecap="round" stroke-linejoin="round"/>
<path d="M11.9891 9.92016C11.4387 9.92016 10.911 10.1388 10.5218 10.5279C10.1327 10.917 9.91406 11.4448 9.91406 11.9952C9.91406 12.5455 10.1327 13.0733 10.5218 13.4624C10.911 13.8515 11.4387 14.0702 11.9891 14.0702C12.5407 14.0702 13.0698 13.851 13.4598 13.4609C13.8499 13.0709 14.0691 12.5418 14.0691 11.9902C14.0691 11.4385 13.8499 10.9094 13.4598 10.5194C13.0698 10.1293 12.5407 9.91016 11.9891 9.91016V9.92016Z" stroke="currentColor" stroke-width="1.2" stroke-linecap="round" stroke-linejoin="round"/>
</g>
<defs>
<clipPath id="ahclip0_2406_52246">
<rect width="24" height="24" fill="white"/>
</clipPath>
</defs>
</symbol><symbol viewBox="0 0 24 24" fill="none" id="sm-12" xmlns="http://www.w3.org/2000/svg">
<g clip-path="url(#aiclip0_2406_52293)">
<path d="M21 21L17 21L17 3L21 3L21 21Z" stroke="currentColor" stroke-width="1.2" stroke-linecap="round" stroke-linejoin="round"/>
<path d="M14 21L10 21L10 8.684L14 8.684L14 21Z" stroke="currentColor" stroke-width="1.2" stroke-linecap="round" stroke-linejoin="round"/>
<path d="M7 21L3 21L3 14.368L7 14.368L7 21Z" stroke="currentColor" stroke-width="1.2" stroke-linecap="round" stroke-linejoin="round"/>
</g>
<defs>
<clipPath id="aiclip0_2406_52293">
<rect width="24" height="24" fill="white"/>
</clipPath>
</defs>
</symbol><symbol viewBox="0 0 24 24" fill="none" id="sm-13" xmlns="http://www.w3.org/2000/svg">
<g clip-path="url(#ajclip0_2406_24251)">
<path d="M20 11.1824C20 15.7234 16.587 19.9694 12 21.0004C7.413 19.9694 4 15.7234 4 11.1824V7.23838C4 6.42638 4.491 5.69438 5.156 5.42338L10.156 3.37738C11.369 2.88038 12.631 2.88038 13.757 3.34138L18.757 5.38738C19.509 5.69538 20 6.42638 20 7.23838V11.1824V11.1824Z" stroke="currentColor" stroke-width="1.2" stroke-linecap="round" stroke-linejoin="round"/>
<path d="M8.17708 10.8231C8.21207 10.8581 8.2359 10.9027 8.24555 10.9512C8.25521 10.9997 8.25025 11.05 8.23132 11.0957C8.21238 11.1415 8.18032 11.1805 8.13917 11.208C8.09803 11.2355 8.04966 11.2502 8.00018 11.2502C7.9507 11.2502 7.90233 11.2355 7.86119 11.208C7.82004 11.1805 7.78798 11.1415 7.76904 11.0957C7.75011 11.05 7.74515 10.9997 7.75481 10.9512C7.76446 10.9027 7.78829 10.8581 7.82328 10.8231C7.87025 10.7763 7.93386 10.75 8.00018 10.75C8.0665 10.75 8.13011 10.7763 8.17708 10.8231" stroke="currentColor" stroke-width="1.5" stroke-linecap="round" stroke-linejoin="round"/>
<path d="M12.1771 10.8231C12.2121 10.8581 12.2359 10.9027 12.2456 10.9512C12.2552 10.9997 12.2503 11.05 12.2313 11.0957C12.2124 11.1415 12.1803 11.1805 12.1392 11.208C12.098 11.2355 12.0497 11.2502 12.0002 11.2502C11.9507 11.2502 11.9023 11.2355 11.8612 11.208C11.82 11.1805 11.788 11.1415 11.769 11.0957C11.7501 11.05 11.7452 10.9997 11.7548 10.9512C11.7645 10.9027 11.7883 10.8581 11.8233 10.8231C11.8703 10.7763 11.9339 10.75 12.0002 10.75C12.0665 10.75 12.1301 10.7763 12.1771 10.8231" stroke="currentColor" stroke-width="1.5" stroke-linecap="round" stroke-linejoin="round"/>
<path d="M16.1771 10.8231C16.2121 10.8581 16.2359 10.9027 16.2456 10.9512C16.2552 10.9997 16.2503 11.05 16.2313 11.0957C16.2124 11.1415 16.1803 11.1805 16.1392 11.208C16.098 11.2355 16.0497 11.2502 16.0002 11.2502C15.9507 11.2502 15.9023 11.2355 15.8612 11.208C15.82 11.1805 15.788 11.1415 15.769 11.0957C15.7501 11.05 15.7452 10.9997 15.7548 10.9512C15.7645 10.9027 15.7883 10.8581 15.8233 10.8231C15.8703 10.7763 15.9339 10.75 16.0002 10.75C16.0665 10.75 16.1301 10.7763 16.1771 10.8231" stroke="currentColor" stroke-width="1.5" stroke-linecap="round" stroke-linejoin="round"/>
</g>
<defs>
<clipPath id="ajclip0_2406_24251">
<rect width="24" height="24" fill="white"/>
</clipPath>
</defs>
</symbol><symbol viewBox="0 0 24 24" fill="none" id="sm-14" xmlns="http://www.w3.org/2000/svg">
<g clip-path="url(#akclip0_2406_52341)">
<path d="M3.11775 12.467C2.96075 12.176 2.96075 11.823 3.11775 11.532C5.00975 8.033 8.50475 5 11.9998 5C15.4948 5 18.9898 8.033 20.8818 11.533C21.0388 11.824 21.0388 12.177 20.8818 12.468C18.9898 15.967 15.4948 19 11.9998 19C8.50475 19 5.00975 15.967 3.11775 12.467Z" stroke="currentColor" stroke-width="1.2" stroke-linecap="round" stroke-linejoin="round"/>
<path d="M14.1213 9.87868C15.2929 11.0502 15.2929 12.9497 14.1213 14.1213C12.9497 15.2929 11.0502 15.2929 9.87868 14.1213C8.70711 12.9497 8.70711 11.0502 9.87868 9.87868C11.0502 8.70711 12.9497 8.70711 14.1213 9.87868Z" stroke="currentColor" stroke-width="1.2" stroke-linecap="round" stroke-linejoin="round"/>
</g>
<defs>
<clipPath id="akclip0_2406_52341">
<rect width="24" height="24" fill="white"/>
</clipPath>
</defs>
</symbol><symbol viewBox="0 0 24 24" fill="none" id="sm-2" xmlns="http://www.w3.org/2000/svg">
<g clip-path="url(#alclip0_2395_51568)">
<path d="M19.9994 12.0312C19.9914 14.0682 19.2184 16.1022 17.6644 17.6562C14.5404 20.7803 9.47437 20.7803 6.35037 17.6562C5.79437 17.1003 5.34238 16.4813 4.98438 15.8253" stroke="currentColor" stroke-width="1.2" stroke-linecap="round" stroke-linejoin="round"/>
<path d="M4.00781 11.87C4.03981 9.866 4.81781 7.872 6.34681 6.343C9.47081 3.219 14.5368 3.219 17.6608 6.343C18.2168 6.899 18.6688 7.518 19.0268 8.174" stroke="currentColor" stroke-width="1.2" stroke-linecap="round" stroke-linejoin="round"/>
<path d="M15.9531 8.17467H19.4881V4.63867" stroke="currentColor" stroke-width="1.2" stroke-linecap="round" stroke-linejoin="round"/>
<path d="M8.05062 15.8242H4.51562V19.3602" stroke="currentColor" stroke-width="1.2" stroke-linecap="round" stroke-linejoin="round"/>
</g>
<defs>
<clipPath id="alclip0_2395_51568">
<rect width="24" height="24" fill="white"/>
</clipPath>
</defs>
</symbol><symbol viewBox="0 0 24 24" fill="none" id="sm-3" xmlns="http://www.w3.org/2000/svg">
<g clip-path="url(#amclip0_2395_51617)">
<path d="M21.5391 6.92578L16.4681 11.9968C16.0771 12.3878 15.4441 12.3878 15.0541 11.9968L12.9131 9.85578C12.5221 9.46478 11.8891 9.46478 11.4991 9.85578L5.53906 15.8158" stroke="currentColor" stroke-width="1.2" stroke-linecap="round" stroke-linejoin="round"/>
<path d="M21.5369 20.8545H2.46094V3.14648" stroke="currentColor" stroke-width="1.2" stroke-linecap="round" stroke-linejoin="round"/>
</g>
<defs>
<clipPath id="amclip0_2395_51617">
<rect width="24" height="24" fill="white"/>
</clipPath>
</defs>
</symbol><symbol viewBox="0 0 24 24" fill="none" id="sm-4" xmlns="http://www.w3.org/2000/svg">
<g clip-path="url(#anclip0_2395_32093)">
<path d="M13.5306 11.125V9.777C13.5306 8.934 12.8466 8.25 12.0036 8.25C11.1606 8.25 10.4766 8.934 10.4766 9.777V11.125" stroke="currentColor" stroke-width="1.2" stroke-linecap="round" stroke-linejoin="round"/>
<path d="M13.75 11.127H10.25C9.698 11.127 9.25 11.575 9.25 12.127V14.251C9.25 14.803 9.698 15.251 10.25 15.251H13.75C14.302 15.251 14.75 14.803 14.75 14.251V12.127C14.75 11.575 14.302 11.127 13.75 11.127Z" stroke="currentColor" stroke-width="1.2" stroke-linecap="round" stroke-linejoin="round"/>
<path d="M20 11.2417C20 15.6097 16.843 19.7037 12.52 20.9277C12.182 21.0237 11.818 21.0237 11.48 20.9277C7.157 19.7047 4 15.6097 4 11.2417V7.21375C4 6.40175 4.491 5.66975 5.243 5.36275L10.107 3.37275C11.321 2.87575 12.681 2.87575 13.894 3.37275L18.758 5.36275C19.509 5.66975 20 6.40175 20 7.21375V11.2417Z" stroke="currentColor" stroke-width="1.2" stroke-linecap="round" stroke-linejoin="round"/>
</g>
<defs>
<clipPath id="anclip0_2395_32093">
<rect width="24" height="24" fill="white"/>
</clipPath>
</defs>
</symbol><symbol viewBox="0 0 24 24" fill="none" id="sm-5" xmlns="http://www.w3.org/2000/svg">
<g clip-path="url(#aoclip0_2395_51664)">
<path d="M13.1822 10.821C13.8332 11.472 13.8332 12.528 13.1822 13.179C12.5312 13.83 11.4752 13.83 10.8242 13.179C10.1732 12.528 10.1732 11.472 10.8242 10.821C11.4752 10.169 12.5312 10.169 13.1822 10.821Z" stroke="currentColor" stroke-width="1.2" stroke-linecap="round" stroke-linejoin="round"/>
<path d="M7 12.0003C7 11.6343 7.084 11.2723 7.248 10.9383C8.089 9.21733 9.949 8.11133 12 8.11133C14.051 8.11133 15.911 9.21733 16.752 10.9383C16.916 11.2723 17 11.6343 17 12.0003C17 12.3663 16.916 12.7283 16.752 13.0623C15.91 14.7823 14.05 15.8893 12 15.8893C9.949 15.8893 8.089 14.7833 7.248 13.0623C7.084 12.7283 7 12.3663 7 12.0003Z" stroke="currentColor" stroke-width="1.2" stroke-linecap="round" stroke-linejoin="round"/>
<path d="M12 21C16.9706 21 21 16.9706 21 12C21 7.02944 16.9706 3 12 3C7.02944 3 3 7.02944 3 12C3 16.9706 7.02944 21 12 21Z" stroke="currentColor" stroke-width="1.2" stroke-linecap="round" stroke-linejoin="round"/>
</g>
<defs>
<clipPath id="aoclip0_2395_51664">
<rect width="24" height="24" fill="white"/>
</clipPath>
</defs>
</symbol><symbol viewBox="0 0 24 24" fill="none" id="sm-6" xmlns="http://www.w3.org/2000/svg">
<g clip-path="url(#apclip0_2395_15119)">
<path d="M19 15V7.828C19 7.298 18.789 6.789 18.414 6.414L15.586 3.586C15.211 3.211 14.702 3 14.172 3H7C5.895 3 5 3.895 5 5V19C5 20.105 5.895 21 7 21H13" stroke="currentColor" stroke-width="1.2" stroke-linecap="round" stroke-linejoin="round"/>
<path d="M21 18L18 21L16 19" stroke="currentColor" stroke-width="1.2" stroke-linecap="round" stroke-linejoin="round"/>
<path d="M8 11H14" stroke="currentColor" stroke-width="1.2" stroke-linecap="round" stroke-linejoin="round"/>
<path d="M8 14H14" stroke="currentColor" stroke-width="1.2" stroke-linecap="round" stroke-linejoin="round"/>
<path d="M8 17H12.33" stroke="currentColor" stroke-width="1.2" stroke-linecap="round" stroke-linejoin="round"/>
<path d="M19 8H15C14.448 8 14 7.552 14 7V3" stroke="currentColor" stroke-width="1.2" stroke-linecap="round" stroke-linejoin="round"/>
</g>
<defs>
<clipPath id="apclip0_2395_15119">
<rect width="24" height="24" fill="white"/>
</clipPath>
</defs>
</symbol><symbol viewBox="0 0 24 24" fill="none" id="sm-7" xmlns="http://www.w3.org/2000/svg">
<g clip-path="url(#aqclip0_2395_44147)">
<path d="M16 13.5059C17.1046 13.5059 18 12.6104 18 11.5059C18 10.4013 17.1046 9.50586 16 9.50586C14.8954 9.50586 14 10.4013 14 11.5059C14 12.6104 14.8954 13.5059 16 13.5059Z" stroke="currentColor" stroke-width="1.2" stroke-linecap="round" stroke-linejoin="round"/>
<path d="M18.7909 3H5.20912C3.98906 3 3 3.98906 3 5.20912V18.7909C3 20.0109 3.98906 21 5.20912 21H18.7909C20.0109 21 21 20.0109 21 18.7909V5.20912C21 3.98906 20.0109 3 18.7909 3Z" stroke="currentColor" stroke-width="1.2" stroke-linecap="round" stroke-linejoin="round"/>
<path d="M9 13.5059C10.3807 13.5059 11.5 12.3866 11.5 11.0059C11.5 9.62515 10.3807 8.50586 9 8.50586C7.61929 8.50586 6.5 9.62515 6.5 11.0059C6.5 12.3866 7.61929 13.5059 9 13.5059Z" stroke="currentColor" stroke-width="1.2" stroke-linecap="round" stroke-linejoin="round"/>
<path d="M14.4963 21V20C14.4963 18.067 12.9293 16.5 10.9963 16.5H7.05125V16.5C5.43223 16.5024 4.02705 17.617 3.65625 19.193" stroke="currentColor" stroke-width="1.2" stroke-linecap="round" stroke-linejoin="round"/>
<path d="M16 16.5059H17.506V16.5059C18.8793 16.5097 20.1211 17.3233 20.673 18.5809" stroke="currentColor" stroke-width="1.2" stroke-linecap="round" stroke-linejoin="round"/>
</g>
<defs>
<clipPath id="aqclip0_2395_44147">
<rect width="24" height="24" fill="white"/>
</clipPath>
</defs>
</symbol><symbol viewBox="0 0 24 24" fill="none" id="sm-8" xmlns="http://www.w3.org/2000/svg">
<g clip-path="url(#arclip0_2395_27716)">
<path d="M19.002 17.0007H15.537C15.197 16.9907 14.887 17.1607 14.697 17.4407L14.287 18.0407H14.277C14.087 18.3107 13.777 18.4807 13.437 18.4807H8.50696V18.4797C8.16696 18.4797 7.85696 18.3097 7.66696 18.0297L7.25696 17.4197C7.06696 17.1397 6.75696 16.9697 6.41696 16.9697H2.94196H2.93196C2.37196 16.9697 1.93196 17.4097 1.93196 17.9697V18.9697H1.92196C1.91196 20.0697 2.81196 20.9597 3.91196 20.9597V20.9497H17.902C19.002 20.9497 19.892 20.0497 19.892 18.9497C19.892 18.9397 19.892 18.9397 19.891 18.9397V17.9397C19.881 17.3797 19.441 16.9397 18.891 16.9297L19.002 17.0007Z" stroke="currentColor" stroke-width="1.2" stroke-linecap="round" stroke-linejoin="round"/>
<path d="M9.00219 4.99968H4.77219C3.84219 4.93968 3.05219 5.63968 2.99219 6.56968V16.9897" stroke="currentColor" stroke-width="1.2" stroke-linecap="round" stroke-linejoin="round"/>
<path d="M19 17V10" stroke="currentColor" stroke-width="1.2" stroke-linecap="round" stroke-linejoin="round"/>
<path d="M15 7L13 5L15 3" stroke="currentColor" stroke-width="1.2" stroke-linecap="round" stroke-linejoin="round"/>
<path d="M18 3L20 5L18 7" stroke="currentColor" stroke-width="1.2" stroke-linecap="round" stroke-linejoin="round"/>
</g>
<defs>
<clipPath id="arclip0_2395_27716">
<rect width="24" height="24" fill="white"/>
</clipPath>
</defs>
</symbol><symbol viewBox="0 0 24 24" fill="none" id="sm-9" xmlns="http://www.w3.org/2000/svg">
<g clip-path="url(#asclip0_2395_51889)">
<path d="M12 11.7242V9" stroke="currentColor" stroke-width="1.2" stroke-linecap="round" stroke-linejoin="round"/>
<path d="M19.815 13.7964L19.8639 13.7841C20.1884 13.703 20.4765 13.5157 20.6823 13.252C20.8882 12.9883 21 12.6634 21 12.3289V11.6707C21 11.3362 20.8882 11.0113 20.6823 10.7476C20.4765 10.4839 20.1884 10.2967 19.8638 10.2155L19.8148 10.2032C19.5638 10.1403 19.331 10.0195 19.1351 9.85044C18.9391 9.68136 18.7855 9.46874 18.6865 9.2296C18.5876 8.99047 18.546 8.73149 18.5651 8.47339C18.5843 8.2153 18.6636 7.96528 18.7968 7.74336L18.8174 7.70904C18.9916 7.42176 19.0646 7.08435 19.0246 6.75073C18.9845 6.41711 18.8338 6.10653 18.5966 5.86862L18.1311 5.4032C17.8946 5.16666 17.5858 5.01597 17.2538 4.97509C16.9218 4.93421 16.5856 5.00549 16.2988 5.17759L16.2554 5.20359C16.0336 5.33672 15.7836 5.41601 15.5255 5.4351C15.2674 5.4542 15.0085 5.41256 14.7694 5.31353C14.5303 5.21451 14.3178 5.06085 14.1488 4.86487C13.9798 4.66889 13.8591 4.43604 13.7963 4.185L13.7841 4.13613C13.703 3.81161 13.5157 3.52352 13.252 3.31766C12.9883 3.11181 12.6634 2.99999 12.3289 3H11.6707C11.3362 3 11.0113 3.11181 10.7476 3.31767C10.4839 3.52353 10.2966 3.81162 10.2155 4.13615L10.2032 4.18515C10.1403 4.43619 10.0195 4.66901 9.85042 4.86495C9.68135 5.0609 9.46873 5.21451 9.22959 5.31348C8.99046 5.41245 8.73147 5.45404 8.47338 5.4349C8.21528 5.41576 7.96526 5.33643 7.74334 5.20327L7.709 5.18268C7.42172 5.0084 7.08431 4.93544 6.75069 4.97546C6.41708 5.01549 6.1065 5.16618 5.86859 5.40346L5.40318 5.86887C5.16663 6.10537 5.01592 6.41416 4.97503 6.74615C4.93413 7.07813 5.00539 7.41426 5.17748 7.7011L5.20309 7.7438C5.33626 7.96572 5.41559 8.21574 5.43473 8.47384C5.45387 8.73193 5.41229 8.99092 5.31332 9.23006C5.21435 9.46919 5.06074 9.68182 4.8648 9.8509C4.66886 10.02 4.43604 10.1408 4.185 10.2037L4.13616 10.2159C3.81164 10.2971 3.52356 10.4844 3.3177 10.748C3.11184 11.0117 3.00001 11.3366 3 11.6711V12.3294C2.99995 12.6638 3.1117 12.9887 3.3175 13.2523C3.5233 13.516 3.81133 13.7032 4.13579 13.7844L4.18431 13.7965C4.43539 13.8593 4.66828 13.98 4.86432 14.1489C5.06035 14.3179 5.21408 14.5304 5.31319 14.7695C5.4123 15.0086 5.45403 15.2675 5.43504 15.5257C5.41605 15.7838 5.33687 16.0338 5.20383 16.2558L5.1779 16.299C5.00581 16.5858 4.93453 16.922 4.9754 17.254C5.01627 17.586 5.16694 17.8948 5.40346 18.1313L5.86892 18.5968C6.10537 18.8334 6.4141 18.9841 6.74604 19.025C7.07798 19.0659 7.41406 18.9946 7.70086 18.8226L7.74375 18.7968C7.96567 18.6636 8.21569 18.5843 8.47379 18.5652C8.73188 18.546 8.99088 18.5876 9.23001 18.6866C9.46915 18.7855 9.68178 18.9391 9.85086 19.1351C10.0199 19.331 10.1408 19.5638 10.2037 19.8149L10.2159 19.8638C10.297 20.1883 10.4843 20.4764 10.748 20.6823C11.0116 20.8882 11.3365 21 11.6711 21H12.3293C12.6638 21 12.9887 20.8883 13.2523 20.6825C13.5159 20.4766 13.7032 20.1886 13.7843 19.8641L13.7965 19.8156C13.8592 19.5646 13.9799 19.3317 14.1489 19.1356C14.3178 18.9396 14.5304 18.7859 14.7695 18.6868C15.0085 18.5876 15.2675 18.5459 15.5256 18.5649C15.7837 18.5839 16.0338 18.6631 16.2558 18.7962L16.299 18.8221C16.5858 18.9942 16.922 19.0655 17.254 19.0246C17.586 18.9837 17.8948 18.8331 18.1313 18.5965L18.5968 18.1311C18.8333 17.8946 18.984 17.5859 19.0249 17.2539C19.0658 16.922 18.9946 16.5859 18.8225 16.2991L18.7968 16.2562C18.6637 16.0343 18.5843 15.7843 18.5652 15.5262C18.5461 15.2681 18.5877 15.0091 18.6866 14.77C18.7856 14.5308 18.9392 14.3182 19.1352 14.1491C19.3311 13.9801 19.564 13.8593 19.815 13.7964V13.7964Z" stroke="currentColor" stroke-width="1.2" stroke-linecap="round" stroke-linejoin="round"/>
<path d="M12 14.7305C11.9824 14.7304 11.9649 14.7339 11.9486 14.7407C11.9324 14.7475 11.9176 14.7575 11.9053 14.77C11.8929 14.7826 11.8832 14.7975 11.8766 14.8139C11.8701 14.8303 11.8669 14.8478 11.8672 14.8654C11.8674 14.9011 11.8817 14.9353 11.907 14.9606C11.9322 14.9858 11.9664 15.0001 12.0021 15.0003C12.0377 14.9997 12.0716 14.9851 12.0964 14.9596C12.1213 14.9342 12.135 14.8999 12.1348 14.8643C12.1345 14.8288 12.1202 14.7947 12.0949 14.7697C12.0697 14.7446 12.0356 14.7305 12 14.7305" stroke="currentColor" stroke-width="1.2" stroke-linecap="round" stroke-linejoin="round"/>
</g>
<defs>
<clipPath id="asclip0_2395_51889">
<rect width="24" height="24" fill="white"/>
</clipPath>
</defs>
</symbol></svg>