<svg width="36" height="36" viewBox="0 0 36 36" fill="none" xmlns="http://www.w3.org/2000/svg">
<g clip-path="url(#clip0_599_6349)">
<path d="M17.9997 35.2798C11.072 35.2798 5.21973 29.4276 5.21973 22.4998V7.63407L17.9997 0.663574L30.7797 7.63407V22.4998C30.7797 29.4276 24.9275 35.2798 17.9997 35.2798ZM6.02973 8.11557V22.4998C6.02973 28.9888 11.5119 34.4698 17.9997 34.4698C24.4876 34.4698 29.9697 28.9888 29.9697 22.4998V8.11557L17.9997 1.58607L6.02973 8.11557Z" fill="url(#paint0_linear_599_6349)" stroke="url(#paint1_linear_599_6349)"/>
<path d="M12.0898 17.162L15.7506 20.8227L23.9125 12.662L23.3387 12.0894L15.7506 19.6775L12.6625 16.5894L12.0898 17.162Z" fill="url(#paint2_linear_599_6349)" stroke="url(#paint3_linear_599_6349)"/>
</g>
<defs>
<linearGradient id="paint0_linear_599_6349" x1="5.21973" y1="17.9717" x2="30.7797" y2="17.9717" gradientUnits="userSpaceOnUse">
<stop stop-color="#0156D5"/>
<stop offset="1" stop-color="#41BAFF"/>
</linearGradient>
<linearGradient id="paint1_linear_599_6349" x1="5.21973" y1="17.9717" x2="30.7797" y2="17.9717" gradientUnits="userSpaceOnUse">
<stop stop-color="#0156D5"/>
<stop offset="1" stop-color="#41BAFF"/>
</linearGradient>
<linearGradient id="paint2_linear_599_6349" x1="12.0898" y1="16.456" x2="23.9125" y2="16.456" gradientUnits="userSpaceOnUse">
<stop stop-color="#0156D5"/>
<stop offset="1" stop-color="#41BAFF"/>
</linearGradient>
<linearGradient id="paint3_linear_599_6349" x1="12.0898" y1="16.456" x2="23.9125" y2="16.456" gradientUnits="userSpaceOnUse">
<stop stop-color="#0156D5"/>
<stop offset="1" stop-color="#41BAFF"/>
</linearGradient>
<clipPath id="clip0_599_6349">
<rect width="36" height="36" fill="white"/>
</clipPath>
</defs>
</svg>
