<svg width="24" height="24" viewBox="0 0 24 24" fill="none" xmlns="http://www.w3.org/2000/svg">
<g clip-path="url(#clip0_1958_45720)">
<path d="M18.763 17.9336C17.48 19.3966 15.735 20.4436 13.75 20.8356" stroke="#0869EC" stroke-width="1.2" stroke-linecap="round" stroke-linejoin="round"/>
<path d="M5.23438 6.08364C6.51737 4.62064 8.26237 3.57364 10.2474 3.18164" stroke="#0869EC" stroke-width="1.2" stroke-linecap="round" stroke-linejoin="round"/>
<path d="M3.485 14.9033C3.175 13.9933 3 13.0213 3 12.0073C3 10.9933 3.175 10.0213 3.485 9.11133" stroke="#0869EC" stroke-width="1.2" stroke-linecap="round" stroke-linejoin="round"/>
<path d="M20.5156 14.9033C20.8256 13.9933 21.0006 13.0213 21.0006 12.0073C21.0006 10.9933 20.8256 10.0213 20.5156 9.11133" stroke="#0869EC" stroke-width="1.2" stroke-linecap="round" stroke-linejoin="round"/>
<path d="M9.162 10.3055C7.942 10.4715 7 11.5065 7 12.7715C7 14.1525 8.12 15.2715 9.5 15.2715H15C16.105 15.2715 17 14.3765 17 13.2715C17 12.1665 16.105 11.2715 15 11.2715C15 9.61448 13.657 8.27148 12 8.27148C10.682 8.27148 9.564 9.12348 9.162 10.3055V10.3055Z" stroke="#0869EC" stroke-width="1.2" stroke-linecap="round" stroke-linejoin="round"/>
<path d="M5.23438 17.9336C6.51737 19.3966 8.26237 20.4436 10.2474 20.8356" stroke="#0869EC" stroke-width="1.2" stroke-linecap="round" stroke-linejoin="round"/>
<path d="M13.75 3.18164C15.735 3.57264 17.479 4.61964 18.763 6.08364" stroke="#0869EC" stroke-width="1.2" stroke-linecap="round" stroke-linejoin="round"/>
</g>
<defs>
<clipPath id="clip0_1958_45720">
<rect width="24" height="24" fill="white"/>
</clipPath>
</defs>
</svg>
