<svg width="36" height="36" viewBox="0 0 36 36" fill="none" xmlns="http://www.w3.org/2000/svg">
<g clip-path="url(#clip0_1918_34147)">
<path d="M19.1238 31.9057H1.12375C0.899875 31.9057 0.71875 31.7246 0.71875 31.5007V7.8757C0.71875 7.7677 0.7615 7.66533 0.836875 7.58995L7.58687 0.839953C7.66337 0.763453 7.76575 0.720703 7.87375 0.720703H24.7488C24.9726 0.720703 25.1538 0.901828 25.1538 1.1257V14.6257H24.3438V1.5307H8.27875V7.8757C8.27875 8.09958 8.09763 8.2807 7.87375 8.2807H1.52875V31.0957H19.1238V31.9057ZM2.10137 7.4707H7.46875V2.10333L2.10137 7.4707ZM18.5612 25.1557H4.49875V24.3457H18.5612V25.1557ZM18.5612 21.7807H4.49875V20.9707H18.5612V21.7807ZM18.5612 18.4057H4.49875V17.5957H18.5612V18.4057ZM21.3738 15.0307H4.49875V14.2207H21.3738V15.0307ZM28.1238 35.2807C24.1784 35.2807 20.9688 32.07 20.9688 28.1257V19.9998L28.1238 16.4223L35.2788 19.9998V28.1257C35.2788 32.0711 32.0691 35.2807 28.1238 35.2807ZM21.7788 20.5016V28.1257C21.7788 31.6245 24.6239 34.4707 28.1238 34.4707C31.6236 34.4707 34.4688 31.6256 34.4688 28.1257V20.5016L28.1238 17.328L21.7788 20.5016Z" fill="url(#paint0_linear_1918_34147)" stroke="url(#paint1_linear_1918_34147)" stroke-width="0.5"/>
</g>
<defs>
<linearGradient id="paint0_linear_1918_34147" x1="0.71875" y1="18.0007" x2="35.2788" y2="18.0007" gradientUnits="userSpaceOnUse">
<stop stop-color="#0156D5"/>
<stop offset="1" stop-color="#41BAFF"/>
</linearGradient>
<linearGradient id="paint1_linear_1918_34147" x1="0.71875" y1="18.0007" x2="35.2788" y2="18.0007" gradientUnits="userSpaceOnUse">
<stop stop-color="#0156D5"/>
<stop offset="1" stop-color="#41BAFF"/>
</linearGradient>
<clipPath id="clip0_1918_34147">
<rect width="36" height="36" fill="white"/>
</clipPath>
</defs>
</svg>
